<?xml version="1.0" encoding="utf-8"?>
<!-- Generator: Adobe Illustrator 25.0.0, SVG Export Plug-In . SVG Version: 6.00 Build 0)  -->
<svg version="1.1" id="Layer_1" xmlns="http://www.w3.org/2000/svg" xmlns:xlink="http://www.w3.org/1999/xlink" x="0px" y="0px"
	 viewBox="0 0 1921 1081" style="enable-background:new 0 0 1921 1081;" xml:space="preserve">
<style type="text/css">
	.st0{fill:#FDF5E6;stroke:#000000;stroke-miterlimit:10;}
	.st1{fill:none;stroke:#000000;stroke-miterlimit:10;}
</style>
<g id="Layer_2_1_">
	<g id="Layer_1-2">
		<rect x="-0.5" y="0.5" class="st0" width="1920" height="1080"/>
		<line class="st1" x1="177.2" y1="120" x2="1807.1" y2="120"/>
		<line class="st1" x1="177.4" y1="180" x2="1806.9" y2="180"/>
		<line class="st1" x1="177.6" y1="240" x2="1807.1" y2="240"/>
		<line class="st1" x1="177.2" y1="300" x2="1806.7" y2="300"/>
		<line class="st1" x1="177.2" y1="360" x2="1806.7" y2="360"/>
		<line class="st1" x1="177.4" y1="420" x2="1806.9" y2="420"/>
		<line class="st1" x1="177.2" y1="480" x2="1807.1" y2="480"/>
		<line class="st1" x1="177.2" y1="540" x2="1807.1" y2="540"/>
		<line class="st1" x1="177.2" y1="600" x2="1807.1" y2="600"/>
		<line class="st1" x1="177.2" y1="660" x2="1807.1" y2="660"/>
		<line class="st1" x1="177.2" y1="720" x2="1807.1" y2="720"/>
		<line class="st1" x1="177.2" y1="780" x2="1807.1" y2="780"/>
		<line class="st1" x1="177.2" y1="840" x2="1807.1" y2="840"/>
		<line class="st1" x1="177.2" y1="900" x2="1807.1" y2="900"/>
		<line class="st1" x1="177.2" y1="960" x2="1807.1" y2="960"/>
		<line class="st1" x1="177.4" y1="1020" x2="1806.9" y2="1020"/>
	</g>
</g>
</svg>
