<svg xmlns="http://www.w3.org/2000/svg" viewBox="0 0 1921 1081"><defs><style>.cls-1{fill:#fdf5e6;}.cls-1,.cls-2{stroke:#000;stroke-miterlimit:10;}.cls-2{fill:#fff;}</style></defs><g id="Layer_2" data-name="Layer 2"><g id="Layer_1-2" data-name="Layer 1"><rect class="cls-1" x="0.5" y="0.5" width="1920" height="1080"/><line class="cls-2" x1="97.5" y1="60" x2="1822.5" y2="60"/><line class="cls-2" x1="97.5" y1="120" x2="1822.5" y2="120"/><line class="cls-2" x1="97.5" y1="180" x2="1822.5" y2="180"/><line class="cls-2" x1="97.5" y1="240" x2="1822.5" y2="240"/><line class="cls-2" x1="97.07" y1="300" x2="1822.07" y2="300"/><line class="cls-2" x1="97.07" y1="360" x2="1822.07" y2="360"/><line class="cls-2" x1="97.07" y1="420" x2="1822.07" y2="420"/><line class="cls-2" x1="97.07" y1="480" x2="1822.07" y2="480"/><line class="cls-2" x1="97.07" y1="540" x2="1822.07" y2="540"/><line class="cls-2" x1="97.07" y1="600" x2="1822.07" y2="600"/><line class="cls-2" x1="97.07" y1="660" x2="1822.07" y2="660"/><line class="cls-2" x1="97.07" y1="720" x2="1822.07" y2="720"/><line class="cls-2" x1="97.07" y1="780" x2="1822.07" y2="780"/><line class="cls-2" x1="97.07" y1="840" x2="1822.07" y2="840"/><line class="cls-2" x1="97.07" y1="900" x2="1822.07" y2="900"/><line class="cls-2" x1="97.07" y1="960" x2="1822.07" y2="960"/><line class="cls-2" x1="97.07" y1="1020" x2="1822.07" y2="1020"/></g></g></svg>